<!-- Lemon-slice.svg -->
<svg xmlns="http://www.w3.org/2000/svg" viewBox="0 0 160 160" width="160" height="160" role="img" aria-labelledby="title">
  <title>Lemon slice illustration</title>

  <!-- Outer rind -->
  <circle cx="80" cy="80" r="70" fill="#FFDF55" stroke="#F3C942" stroke-width="6"></circle>

  <!-- Inner pith -->
  <circle cx="80" cy="80" r="56" fill="#FFF9D6"></circle>

  <!-- Segments -->
  <g fill="#FFE76E" stroke="#F3C942" stroke-width="2">
    <!-- We draw 8 equally spaced wedge paths -->
    <path d="M80 80 L80 24 A56 56 0 0 1 124 36 Z"></path>
    <path d="M80 80 L124 36 A56 56 0 0 1 144 80 Z"></path>
    <path d="M80 80 L144 80 A56 56 0 0 1 124 124 Z"></path>
    <path d="M80 80 L124 124 A56 56 0 0 1 80 136 Z"></path>
    <path d="M80 80 L80 136 A56 56 0 0 1 36 124 Z"></path>
    <path d="M80 80 L36 124 A56 56 0 0 1 16 80 Z"></path>
    <path d="M80 80 L16 80 A56 56 0 0 1 36 36 Z"></path>
    <path d="M80 80 L36 36 A56 56 0 0 1 80 24 Z"></path>
  </g>

  <!-- Seeds -->
  <g fill="#FFF">
    <ellipse cx="94" cy="47" rx="7" ry="12" transform="rotate(15 94 47)"></ellipse>
    <ellipse cx="118" cy="62" rx="7" ry="12" transform="rotate(60 118 62)"></ellipse>
    <ellipse cx="118" cy="98" rx="7" ry="12" transform="rotate(120 118 98)"></ellipse>
    <ellipse cx="94" cy="113" rx="7" ry="12" transform="rotate(165 94 113)"></ellipse>
    <ellipse cx="66" cy="113" rx="7" ry="12" transform="rotate(-165 66 113)"></ellipse>
    <ellipse cx="42" cy="98" rx="7" ry="12" transform="rotate(-120 42 98)"></ellipse>
    <ellipse cx="42" cy="62" rx="7" ry="12" transform="rotate(-60 42 62)"></ellipse>
    <ellipse cx="66" cy="47" rx="7" ry="12" transform="rotate(-15 66 47)"></ellipse>
  </g>
</svg>
